<mxfile host="app.diagrams.net" agent="Mozilla/5.0 (Windows NT 10.0; Win64; x64) AppleWebKit/537.36 (KHTML, like Gecko) Chrome/129.0.0.0 Safari/537.36" version="24.7.17">
  <diagram id="R2lEEEUBdFMjLlhIrx00" name="Page-1">
    <mxGraphModel dx="1332" dy="1534" grid="1" gridSize="10" guides="1" tooltips="1" connect="1" arrows="1" fold="1" page="1" pageScale="1" pageWidth="850" pageHeight="1100" math="0" shadow="0" extFonts="Permanent Marker^https://fonts.googleapis.com/css?family=Permanent+Marker">
      <root>
        <mxCell id="0" />
        <mxCell id="1" parent="0" />
        <mxCell id="UWmZCRwhg4cuAC8sLT2k-19" value="Tutorias" style="swimlane;childLayout=stackLayout;horizontal=1;startSize=50;horizontalStack=0;rounded=1;fontSize=14;fontStyle=0;strokeWidth=2;resizeParent=0;resizeLast=1;shadow=0;dashed=0;align=center;arcSize=4;whiteSpace=wrap;html=1;" vertex="1" parent="1">
          <mxGeometry x="610" y="342.5" width="140" height="145" as="geometry" />
        </mxCell>
        <mxCell id="UWmZCRwhg4cuAC8sLT2k-20" value="+IdTutoria (PK)&lt;div&gt;+Fecha&lt;/div&gt;&lt;div&gt;+Hora_inicio&lt;/div&gt;&lt;div&gt;+Hora_fin&lt;/div&gt;&lt;div&gt;+Tema&lt;/div&gt;&lt;div&gt;+Salon&lt;/div&gt;&lt;div&gt;&lt;br&gt;&lt;/div&gt;" style="align=left;strokeColor=none;fillColor=none;spacingLeft=4;fontSize=12;verticalAlign=top;resizable=0;rotatable=0;part=1;html=1;" vertex="1" parent="UWmZCRwhg4cuAC8sLT2k-19">
          <mxGeometry y="50" width="140" height="95" as="geometry" />
        </mxCell>
        <mxCell id="UWmZCRwhg4cuAC8sLT2k-28" value="" style="edgeStyle=entityRelationEdgeStyle;fontSize=12;html=1;endArrow=ERoneToMany;rounded=0;exitX=1;exitY=0.5;exitDx=0;exitDy=0;" edge="1" parent="1" source="UWmZCRwhg4cuAC8sLT2k-21">
          <mxGeometry width="100" height="100" relative="1" as="geometry">
            <mxPoint x="400" y="140" as="sourcePoint" />
            <mxPoint x="680" y="55" as="targetPoint" />
          </mxGeometry>
        </mxCell>
        <mxCell id="UWmZCRwhg4cuAC8sLT2k-29" value="" style="edgeStyle=entityRelationEdgeStyle;fontSize=12;html=1;endArrow=none;rounded=0;entryX=0;entryY=0.5;entryDx=0;entryDy=0;startArrow=none;startFill=0;endFill=0;exitX=1.011;exitY=0.138;exitDx=0;exitDy=0;exitPerimeter=0;" edge="1" parent="1" source="UWmZCRwhg4cuAC8sLT2k-43" target="UWmZCRwhg4cuAC8sLT2k-21">
          <mxGeometry width="100" height="100" relative="1" as="geometry">
            <mxPoint x="250" y="70" as="sourcePoint" />
            <mxPoint x="618" y="53" as="targetPoint" />
          </mxGeometry>
        </mxCell>
        <mxCell id="UWmZCRwhg4cuAC8sLT2k-21" value="CRUD" style="shape=rhombus;perimeter=rhombusPerimeter;whiteSpace=wrap;html=1;align=center;" vertex="1" parent="1">
          <mxGeometry x="450" y="25" width="120" height="60" as="geometry" />
        </mxCell>
        <mxCell id="UWmZCRwhg4cuAC8sLT2k-30" value="" style="edgeStyle=entityRelationEdgeStyle;fontSize=12;html=1;endArrow=ERoneToMany;rounded=0;exitX=0.5;exitY=1;exitDx=0;exitDy=0;entryX=0.5;entryY=0;entryDx=0;entryDy=0;curved=0;strokeColor=none;" edge="1" parent="1" source="UWmZCRwhg4cuAC8sLT2k-23" target="UWmZCRwhg4cuAC8sLT2k-19">
          <mxGeometry width="100" height="100" relative="1" as="geometry">
            <mxPoint x="420" y="300" as="sourcePoint" />
            <mxPoint x="520" y="200" as="targetPoint" />
            <Array as="points">
              <mxPoint x="740" y="150" />
              <mxPoint x="755" y="340" />
              <mxPoint x="780" y="220" />
              <mxPoint x="755" y="360" />
            </Array>
          </mxGeometry>
        </mxCell>
        <mxCell id="UWmZCRwhg4cuAC8sLT2k-34" style="edgeStyle=orthogonalEdgeStyle;rounded=0;orthogonalLoop=1;jettySize=auto;html=1;endArrow=ERoneToMany;endFill=0;entryX=1;entryY=0.25;entryDx=0;entryDy=0;" edge="1" parent="1" source="UWmZCRwhg4cuAC8sLT2k-23" target="UWmZCRwhg4cuAC8sLT2k-20">
          <mxGeometry relative="1" as="geometry">
            <mxPoint x="770" y="410" as="targetPoint" />
          </mxGeometry>
        </mxCell>
        <mxCell id="UWmZCRwhg4cuAC8sLT2k-35" value="" style="edgeStyle=orthogonalEdgeStyle;rounded=0;orthogonalLoop=1;jettySize=auto;html=1;entryX=0.462;entryY=0.026;entryDx=0;entryDy=0;entryPerimeter=0;endArrow=none;endFill=0;" edge="1" parent="1" source="UWmZCRwhg4cuAC8sLT2k-41" target="UWmZCRwhg4cuAC8sLT2k-23">
          <mxGeometry relative="1" as="geometry">
            <mxPoint x="780" y="125" as="sourcePoint" />
            <mxPoint x="746" y="403" as="targetPoint" />
            <Array as="points">
              <mxPoint x="780" y="232" />
            </Array>
          </mxGeometry>
        </mxCell>
        <mxCell id="UWmZCRwhg4cuAC8sLT2k-23" value="IMPARTE" style="shape=rhombus;perimeter=rhombusPerimeter;whiteSpace=wrap;html=1;align=center;" vertex="1" parent="1">
          <mxGeometry x="720" y="230" width="120" height="60" as="geometry" />
        </mxCell>
        <mxCell id="UWmZCRwhg4cuAC8sLT2k-37" style="edgeStyle=orthogonalEdgeStyle;rounded=0;orthogonalLoop=1;jettySize=auto;html=1;entryX=0.993;entryY=0.143;entryDx=0;entryDy=0;entryPerimeter=0;endArrow=ERmany;endFill=0;" edge="1" parent="1" source="UWmZCRwhg4cuAC8sLT2k-36" target="UWmZCRwhg4cuAC8sLT2k-45">
          <mxGeometry relative="1" as="geometry">
            <mxPoint x="270.25" y="414.99000000000024" as="targetPoint" />
          </mxGeometry>
        </mxCell>
        <mxCell id="UWmZCRwhg4cuAC8sLT2k-38" value="" style="edgeStyle=orthogonalEdgeStyle;rounded=0;orthogonalLoop=1;jettySize=auto;html=1;entryX=1;entryY=0.5;entryDx=0;entryDy=0;startArrow=ERmany;startFill=0;endArrow=none;endFill=0;" edge="1" parent="1" source="UWmZCRwhg4cuAC8sLT2k-19" target="UWmZCRwhg4cuAC8sLT2k-36">
          <mxGeometry relative="1" as="geometry">
            <mxPoint x="410" y="420" as="sourcePoint" />
            <mxPoint x="130" y="420" as="targetPoint" />
          </mxGeometry>
        </mxCell>
        <mxCell id="UWmZCRwhg4cuAC8sLT2k-36" value="ASISTIR" style="shape=rhombus;perimeter=rhombusPerimeter;whiteSpace=wrap;html=1;align=center;" vertex="1" parent="1">
          <mxGeometry x="400" y="385" width="120" height="60" as="geometry" />
        </mxCell>
        <mxCell id="UWmZCRwhg4cuAC8sLT2k-40" value="Docentes" style="swimlane;childLayout=stackLayout;horizontal=1;startSize=50;horizontalStack=0;rounded=1;fontSize=14;fontStyle=0;strokeWidth=2;resizeParent=0;resizeLast=1;shadow=0;dashed=0;align=center;arcSize=4;whiteSpace=wrap;html=1;" vertex="1" parent="1">
          <mxGeometry x="680" y="-10" width="150" height="130" as="geometry" />
        </mxCell>
        <mxCell id="UWmZCRwhg4cuAC8sLT2k-41" value="+Id_Docente (PK)&lt;br&gt;+Nombre&lt;br&gt;+Apellido&lt;div&gt;+Email&lt;/div&gt;&lt;div&gt;+Materias&lt;/div&gt;&lt;div&gt;&lt;br&gt;&lt;div&gt;&lt;br&gt;&lt;/div&gt;&lt;/div&gt;" style="align=left;strokeColor=none;fillColor=none;spacingLeft=4;fontSize=12;verticalAlign=top;resizable=0;rotatable=0;part=1;html=1;" vertex="1" parent="UWmZCRwhg4cuAC8sLT2k-40">
          <mxGeometry y="50" width="150" height="80" as="geometry" />
        </mxCell>
        <mxCell id="UWmZCRwhg4cuAC8sLT2k-42" value="Administrativo" style="swimlane;childLayout=stackLayout;horizontal=1;startSize=50;horizontalStack=0;rounded=1;fontSize=14;fontStyle=0;strokeWidth=2;resizeParent=0;resizeLast=1;shadow=0;dashed=0;align=center;arcSize=4;whiteSpace=wrap;html=1;" vertex="1" parent="1">
          <mxGeometry x="190" y="-5" width="150" height="135" as="geometry" />
        </mxCell>
        <mxCell id="UWmZCRwhg4cuAC8sLT2k-43" value="+Id_Administrativo (PK)&lt;br&gt;+Nombre&lt;br&gt;+Apellido&lt;div&gt;+Email&lt;/div&gt;&lt;div&gt;+Cargo&lt;/div&gt;" style="align=left;strokeColor=none;fillColor=none;spacingLeft=4;fontSize=12;verticalAlign=top;resizable=0;rotatable=0;part=1;html=1;" vertex="1" parent="UWmZCRwhg4cuAC8sLT2k-42">
          <mxGeometry y="50" width="150" height="85" as="geometry" />
        </mxCell>
        <mxCell id="UWmZCRwhg4cuAC8sLT2k-44" value="Estudiantes" style="swimlane;childLayout=stackLayout;horizontal=1;startSize=50;horizontalStack=0;rounded=1;fontSize=14;fontStyle=0;strokeWidth=2;resizeParent=0;resizeLast=1;shadow=0;dashed=0;align=center;arcSize=4;whiteSpace=wrap;html=1;" vertex="1" parent="1">
          <mxGeometry x="170" y="355" width="150" height="135" as="geometry" />
        </mxCell>
        <mxCell id="UWmZCRwhg4cuAC8sLT2k-45" value="+Id_Estudiante (PK)&lt;br&gt;+Nombre&lt;br&gt;+Apellido&lt;div&gt;+Email&lt;/div&gt;&lt;div&gt;+Carrera&lt;/div&gt;" style="align=left;strokeColor=none;fillColor=none;spacingLeft=4;fontSize=12;verticalAlign=top;resizable=0;rotatable=0;part=1;html=1;" vertex="1" parent="UWmZCRwhg4cuAC8sLT2k-44">
          <mxGeometry y="50" width="150" height="85" as="geometry" />
        </mxCell>
      </root>
    </mxGraphModel>
  </diagram>
</mxfile>
